<svg xmlns="http://www.w3.org/2000/svg" xmlns:xlink="http://www.w3.org/1999/xlink" xmlns:sketch="http://www.bohemiancoding.com/sketch/ns" viewBox="0 0 40 50" version="1.1" x="0px" y="0px"><title>french-horn_brass_instrument_music_sound</title><desc>Created with Sketch.</desc><g stroke="none" stroke-width="1" fill="none" fill-rule="evenodd" sketch:type="MSPage"><path d="M22.4463431,26.1150148 C22.8044412,25.1443648 23,24.09502 23,23 C23,18.0294373 18.9705627,14 14,14 C11.1727339,14 8.64995551,15.3036669 7,17.3426657 L7,17.3426657 L7,11 L8,11 L8,9 L4,9 L4,11 L5,11 L5,23 C5,27.9705627 9.02943725,32 14,32 C15.9810726,32 17.8126467,31.3599203 19.2991955,30.2752873 L24.5816309,27.1652713 C27.1531328,25.6201571 36.8480088,29.3811765 36.8480088,29.3811765 C37.367373,29.5709222 37.5599463,29.3487751 37.2778302,28.8792551 L27.9987014,13.4361914 C27.7223848,12.9763233 27.4278273,13.0310851 27.3537422,13.5800633 C27.3537422,13.5800633 26.1230566,23.9058225 23.5515547,25.4509367 L22.4463431,26.1150148 Z M7,23 C7,19.1340068 10.1340068,16 14,16 C17.8659932,16 21,19.1340068 21,23 C21,26.8659932 17.8659932,30 14,30 C10.1340068,30 7,26.8659932 7,23 Z" fill="#000000" sketch:type="MSShapeGroup"/></g><text x="0" y="55" fill="#000000" font-size="5px" font-weight="bold" font-family="'Helvetica Neue', Helvetica, Arial-Unicode, Arial, Sans-serif">Created by Pham Thi Dieu Linh</text><text x="0" y="60" fill="#000000" font-size="5px" font-weight="bold" font-family="'Helvetica Neue', Helvetica, Arial-Unicode, Arial, Sans-serif">from the Noun Project</text></svg>