<svg xmlns="http://www.w3.org/2000/svg" xmlns:xlink="http://www.w3.org/1999/xlink" version="1.1" x="0px" y="0px" viewBox="0 0 100 100" enable-background="new 0 0 100 100" xml:space="preserve"><path d="M23.442,78.929l-2.299-2.303c-0.276-0.277-0.681-0.384-1.056-0.282c-2.68,0.726-6.507,2.227-9.522,5.25  c-5.821,5.834-4.89,9.215-3.084,11.024c0.921,0.924,2.02,1.393,3.267,1.393c2.198,0,4.729-1.467,7.739-4.485  c3.018-3.025,4.514-6.859,5.237-9.544C23.825,79.605,23.718,79.204,23.442,78.929z"/><path d="M93.446,4.543c0.008-0.009,0.021-0.006,0.028-0.014c0.017-0.018,0.022-0.04,0.039-0.057  c0.595-0.596,1.506-0.653,2.028-0.127c0.525,0.525,0.467,1.438-0.126,2.034c-0.019,0.017-0.041,0.022-0.057,0.039  c-0.008,0.007-0.006,0.02-0.012,0.028L25.575,77.605c-0.088,0.09-0.203,0.148-0.321,0.154c-0.119,0.01-0.227-0.031-0.305-0.112  l-2.532-2.537c-0.078-0.075-0.119-0.188-0.109-0.303c0.009-0.12,0.062-0.237,0.152-0.322L93.446,4.543z"/></svg>
